<svg width="126" height="126" viewBox="0 0 126 126" fill="none" xmlns="http://www.w3.org/2000/svg">
<path d="M0 16C0 7.16344 7.16344 0 16 0H110C118.837 0 126 7.16344 126 16V110C126 118.837 118.837 126 110 126H16C7.16344 126 0 118.837 0 110V16Z" fill="url(#paint0_linear_44829_737)"/>
<path d="M33.9734 76.2731C34.8951 75.7886 35.6278 75.1563 36.1596 74.3764C36.6914 73.5905 36.9573 72.7101 36.9573 71.7233C36.9573 70.518 36.6618 69.4426 36.071 68.4854C35.4801 67.5341 34.6588 66.7895 33.6188 66.2578C32.573 65.726 31.3794 65.4601 30.0322 65.4601H22.8295C22.3863 65.4601 22.0141 65.6078 21.7186 65.8973C21.4173 66.1869 21.2637 66.565 21.2637 67.0259V87.4169C21.2637 87.8601 21.4173 88.2324 21.7186 88.5337C22.02 88.835 22.3922 88.9887 22.8295 88.9887H30.6586C32.1417 88.9887 33.477 88.6873 34.647 88.0846C35.8228 87.4819 36.7327 86.637 37.3886 85.5557C38.0445 84.4744 38.3695 83.2454 38.3695 81.8805C38.3695 80.3974 37.9795 79.1684 37.1936 78.2052C36.4137 77.2362 35.3383 76.5981 33.9734 76.2731ZM24.4012 68.3554H30.0322C31.2199 68.3554 32.1653 68.639 32.8802 69.2121C33.5952 69.7853 33.9497 70.6243 33.9497 71.7293C33.9497 72.8342 33.5952 73.6791 32.8802 74.2582C32.1653 74.8372 31.2199 75.1327 30.0322 75.1327H24.4012V68.3554ZM34.0679 84.9944C33.2052 85.7271 32.0708 86.0934 30.6645 86.0934H24.4012V78.0221H30.6645C32.0885 78.0221 33.2289 78.3529 34.0797 79.0147C34.9306 79.6765 35.3619 80.6278 35.3619 81.8746C35.3619 83.2217 34.9306 84.2617 34.0679 84.9944Z" fill="white"/>
<path d="M52.8983 73.4132C51.7756 72.7337 50.4402 72.391 48.8921 72.391C47.3263 72.391 45.926 72.7455 44.691 73.4605C43.4561 74.1754 42.493 75.1681 41.8017 76.4385C41.1103 77.7148 40.7617 79.1565 40.7617 80.7637C40.7617 82.3709 41.1281 83.8067 41.8607 85.0711C42.5934 86.3356 43.6156 87.3224 44.9156 88.0373C46.2214 88.7523 47.6986 89.1068 49.3412 89.1068C50.263 89.1068 51.232 88.9355 52.2483 88.5928C53.2587 88.25 54.1096 87.8069 54.795 87.2692C55.114 87.0269 55.2795 86.7256 55.2795 86.3652C55.2795 85.9811 55.0963 85.6443 54.7359 85.3429C54.5114 85.142 54.2159 85.0416 53.8318 85.0416C53.4478 85.0416 53.1169 85.1539 52.8392 85.3725C52.4197 85.6975 51.882 85.9634 51.2261 86.1879C50.5702 86.4065 49.9439 86.5188 49.3412 86.5188C47.8167 86.5188 46.5227 86.0874 45.471 85.2248C44.4133 84.3621 43.7811 83.2276 43.5566 81.8213H55.0018C55.4036 81.8213 55.7345 81.6973 55.9944 81.4432C56.2544 81.195 56.3844 80.8759 56.3844 80.4919C56.3844 78.9083 56.0831 77.502 55.4804 76.2789C54.8895 75.0499 54.0268 74.0986 52.8983 73.4132ZM43.592 79.4047C43.8343 78.0575 44.4074 76.988 45.3233 76.1844C46.2332 75.3808 47.4268 74.979 48.8921 74.979C50.2157 74.979 51.2911 75.3808 52.1124 76.1844C52.9337 76.988 53.436 78.0634 53.6191 79.4047H43.592Z" fill="white"/>
<path d="M71.2032 73.2654C70.0982 72.6627 68.8515 72.3614 67.4689 72.3614C66.4644 72.3614 65.519 72.5387 64.6386 72.8873C63.7523 73.2359 62.99 73.7322 62.346 74.3763V74.0454C62.346 73.5845 62.2042 73.2122 61.9265 72.9286C61.6428 72.6509 61.2706 72.5091 60.8097 72.5091C60.3666 72.5091 60.0002 72.6509 59.7107 72.9286C59.4212 73.2122 59.2734 73.5786 59.2734 74.0454V87.4759C59.2734 87.9191 59.4212 88.2854 59.7107 88.575C60.0002 88.8645 60.3666 89.0122 60.8097 89.0122C61.2706 89.0122 61.6428 88.8704 61.9265 88.575C62.2101 88.2854 62.346 87.9191 62.346 87.4759V78.9851C62.346 78.2642 62.541 77.6083 62.9309 77.0293C63.3209 76.4502 63.8645 75.9894 64.5558 75.6466C65.2472 75.3039 66.0153 75.1326 66.8603 75.1326C68.3079 75.1326 69.466 75.5521 70.3405 76.3852C71.215 77.2184 71.6522 78.4474 71.6522 80.0723V87.4818C71.6522 87.925 71.794 88.2913 72.0895 88.5809C72.379 88.8704 72.7454 89.0181 73.1885 89.0181C73.6258 89.0181 73.998 88.8763 74.2875 88.5809C74.5771 88.2913 74.7248 87.925 74.7248 87.4818V80.0723C74.7248 78.4474 74.4116 77.0529 73.7912 75.9007C73.1708 74.7426 72.3081 73.8681 71.2032 73.2654Z" fill="white"/>
<path d="M86.1054 85.9693H85.0832C84.4391 85.9693 83.8955 85.6975 83.4583 85.1539C83.0151 84.6103 82.7965 83.9367 82.7965 83.139V75.6999H85.355C85.7745 75.6999 86.1172 75.5817 86.3772 75.3395C86.6372 75.0972 86.7672 74.7959 86.7672 74.4354C86.7672 74.0336 86.6372 73.7146 86.3772 73.4723C86.1172 73.2301 85.7745 73.1119 85.355 73.1119H82.7965V68.7749C82.7965 68.3317 82.6547 67.9713 82.377 67.6936C82.0934 67.4099 81.7329 67.274 81.2957 67.274C80.8525 67.274 80.4921 67.4159 80.2085 67.6936C79.9249 67.9772 79.789 68.3376 79.789 68.7749V73.1119H78.4063C77.9868 73.1119 77.6441 73.2301 77.3841 73.4723C77.1241 73.7146 76.9941 74.0336 76.9941 74.4354C76.9941 74.7959 77.1241 75.0972 77.3841 75.3395C77.6441 75.5817 77.9868 75.6999 78.4063 75.6999H79.789V83.139C79.789 84.2439 80.0194 85.2366 80.4803 86.117C80.9412 87.0033 81.5793 87.7006 82.3947 88.2087C83.2101 88.7228 84.1024 88.9768 85.0891 88.9768H85.6327C86.1527 88.9768 86.584 88.835 86.9149 88.5573C87.2458 88.2737 87.4112 87.9133 87.4112 87.4701C87.4112 87.027 87.2872 86.6665 87.0331 86.3888C86.7731 86.1111 86.4658 85.9693 86.1054 85.9693Z" fill="white"/>
<path d="M103.631 72.6627C103.413 72.5623 103.17 72.515 102.91 72.515C102.39 72.515 101.994 72.8045 101.734 73.3895L96.8834 84.3207L91.3706 73.36C91.0869 72.7986 90.6674 72.515 90.1061 72.515C89.8816 72.515 89.6866 72.5564 89.5034 72.6332C89.2434 72.7514 89.0307 72.9227 88.8712 73.1472C88.7116 73.3659 88.6289 73.6081 88.6289 73.8681C88.6289 74.1104 88.6762 74.3172 88.7825 74.5003L95.5599 87.3578L92.5464 94.1351C92.4282 94.3773 92.3691 94.6196 92.3691 94.8559C92.3691 95.3759 92.6705 95.7718 93.2732 96.0318C93.5568 96.15 93.7931 96.215 93.994 96.215C94.5376 96.215 94.9276 95.9018 95.1699 95.2814L104.388 74.5594C104.506 74.2758 104.571 74.0395 104.571 73.8386C104.565 73.295 104.258 72.8991 103.631 72.6627Z" fill="white"/>
<path d="M77.7843 51.3558V51.344C76.0176 47.6983 72.9274 45.323 69.0394 45.8253C68.6967 45.8666 68.5254 45.4412 68.7912 45.2344C70.0262 44.2831 70.8534 43.0954 71.3143 41.7778C72.0174 39.7806 71.8933 37.4762 71.0838 35.1718V35.16C71.0366 35.0064 70.9775 34.8527 70.9125 34.7109C68.8799 30.2676 63.4497 28.9735 58.4746 30.5985C58.3505 30.6516 57.281 31.083 57.0742 31.1775C61.9844 29.6885 67.4854 31.0121 69.258 35.2959C69.323 35.4377 69.388 35.5972 69.4353 35.7509V35.7627C70.2448 38.0553 70.3689 40.3715 69.6776 42.3687C69.193 43.7336 68.3245 44.9567 67.0127 45.9257C66.7764 46.103 66.9536 46.5639 67.3318 46.493C71.3261 45.713 74.7 48.3956 76.1358 51.929V51.9408C76.2067 52.0826 78.7061 58.7713 71.8756 62.5706C71.7633 62.6356 70.6348 63.1674 69.5889 63.3388C71.3438 63.2679 72.7796 62.6593 73.276 62.3934C80.7446 58.3577 77.8612 51.4977 77.7843 51.3558Z" fill="white"/>
<path d="M65.6951 60.3017V60.2958C65.6892 60.1658 65.6774 60.0417 65.6597 59.9117C65.2283 56.0887 61.6654 53.2998 57.5056 53.3825C57.3933 53.3884 57.2752 53.3943 57.1629 53.4062C56.9916 53.4062 56.832 53.4239 56.6607 53.4475C56.4893 53.4653 56.3298 53.483 56.1643 53.5184C56.0521 53.5303 55.9398 53.5539 55.8275 53.5716C55.5439 53.6189 55.2603 53.6839 54.9767 53.7607C53.3518 54.2098 51.845 55.1256 50.5215 56.3251C57.1275 64.9755 64.8561 63.451 65.252 63.2088C65.636 62.2752 65.7542 61.3475 65.6951 60.3017Z" fill="white"/>
<path d="M72.2435 53.7726C72.2199 53.6367 72.1962 53.4949 72.1608 53.359V53.3471C71.4517 50.3219 69.6968 47.9406 66.9847 47.1548C66.3466 46.9716 66.193 46.0912 66.7307 45.7012C69.0173 44.0527 69.8741 41.2224 69.5196 38.1381V38.1262C69.5078 37.9844 69.4782 37.8485 69.4546 37.7067C68.7337 33.5529 64.6508 30.7344 60.1129 31.0948C59.9888 31.1067 59.8647 31.1185 59.7406 31.1421C59.5515 31.1539 59.3802 31.1835 59.197 31.2189C59.0138 31.2485 58.8366 31.2839 58.6593 31.3312C58.5352 31.3548 58.4171 31.3844 58.293 31.4139C51.2498 33.0743 46.4696 42.741 47.6041 49.2937C47.7577 50.1978 47.6041 49.2937 47.7695 50.2391C47.9054 51.0073 48.13 51.7931 48.4372 52.5731C49.1403 54.3634 51.2616 55.043 52.8924 54.0266C53.8614 53.424 54.8955 52.9749 55.9886 52.7149C56.1127 52.6854 56.2308 52.6558 56.3549 52.6322C56.5381 52.5849 56.7094 52.5495 56.8926 52.5199C57.0758 52.4904 57.253 52.4549 57.4362 52.4431C57.5603 52.4195 57.6844 52.4077 57.8085 52.3958C62.3523 52.0354 66.4293 54.8539 67.1502 59.0077C67.1738 59.1436 67.1975 59.2854 67.2093 59.4272V59.4391C67.3393 60.5735 67.1974 61.6962 66.837 62.742C70.5654 61.2058 72.8994 57.5483 72.2435 53.7726ZM51.4152 53.7962C49.9617 53.7962 48.7858 52.6204 48.7858 51.1668C48.7858 49.7133 49.9617 48.5374 51.4152 48.5374C52.8688 48.5374 54.0446 49.7133 54.0446 51.1668C54.0446 52.6145 52.8688 53.7962 51.4152 53.7962Z" fill="white"/>
<defs>
<linearGradient id="paint0_linear_44829_737" x1="126" y1="3.75509e-06" x2="8.4392e-06" y2="123.69" gradientUnits="userSpaceOnUse">
<stop stop-color="#76AECC"/>
<stop offset="1" stop-color="#486F83"/>
</linearGradient>
</defs>
</svg>
