<svg width="36" height="36" viewBox="0 0 36 36" fill="none" xmlns="http://www.w3.org/2000/svg">
<g clip-path="url(#clip0_44829_1227)">
<path d="M17.9996 35.9993C27.9402 35.9993 35.9993 27.9395 35.9993 17.9996C35.9993 8.05976 27.9409 0 17.9996 0C8.05836 0 0 8.06047 0 17.9996C0 27.9388 8.05906 35.9993 17.9996 35.9993Z" fill="#F0F0F0"/>
<path fill-rule="evenodd" clip-rule="evenodd" d="M33.3404 8.60118H17.1913V3.90088H29.1906C30.8383 5.21268 32.2429 6.8036 33.3404 8.60118ZM36.0002 17.9997H17.2012V13.3008H35.3808C35.7933 14.833 36.0016 16.4129 36.0002 17.9997ZM18.0006 35.9993C22.07 36.0087 26.0208 34.6297 29.2005 32.09H6.80144C9.9806 34.6301 13.9314 36.0091 18.0006 35.9993ZM33.3601 27.4003H2.64113C1.74516 25.9391 1.0648 24.3562 0.621094 22.7007H35.3801C34.9365 24.3563 34.2562 25.9392 33.3601 27.4003Z" fill="#D80027"/>
<path fill-rule="evenodd" clip-rule="evenodd" d="M8.35648 2.80121H8.34031V2.81246L8.35648 2.80121ZM8.35648 2.80121H9.98418L8.4507 3.90158L9.03076 5.70154L7.50079 4.60118L5.98067 5.70154L6.48058 4.14837C5.13699 5.2729 3.96474 6.58751 3.00088 8.05064H3.53103L2.56073 8.75375L2.12058 9.52717L2.58042 10.9573L1.71067 10.3245L1.11092 11.7209L1.61083 13.2888H3.50923L2.00035 14.4004L2.58042 16.2004L1.05045 15.1L0.150467 15.7596C0.0500359 16.502 -0.000233372 17.2504 8.14451e-07 17.9997H17.9996V1.51608e-05C14.584 -0.00442719 11.2382 0.967474 8.35648 2.80121ZM9.02725 16.1913L9.04061 16.2018H9.03076L9.02725 16.1913ZM8.44999 14.4011L9.02725 16.1913L7.50009 15.1014L5.97012 16.2018L6.55019 14.4018L5.02022 13.3015H6.91862L7.49868 11.5015L8.07875 13.3015H9.97715L8.44999 14.4011ZM8.46054 9.16156L9.04061 10.9615L7.51064 9.86115L5.98067 10.9615L6.56073 9.16156L5.03076 8.06119H6.92916L7.50923 6.26122L8.0893 8.06119H9.9877L8.46054 9.16156ZM13.9701 15.1014L15.5001 16.2018L14.92 14.4018L16.4528 13.3015H14.5544L13.9743 11.5015L13.3943 13.3015H11.4959L13.0258 14.4018L12.4458 16.2018L13.9701 15.1014ZM14.92 9.16156L15.5001 10.9615L13.9701 9.86115L12.4401 10.9615L13.0202 9.16156L11.4902 8.06119H13.3886L13.9687 6.26122L14.5488 8.06119H16.4472L14.92 9.16156ZM15.5001 5.72123L14.92 3.92127L16.4528 2.8209H14.5544L13.9743 1.02093L13.3943 2.8209H11.4959L13.0258 3.92127L12.4458 5.72123L13.9757 4.62086L15.5001 5.72123Z" fill="#0052B4"/>
</g>
<defs>
<clipPath id="clip0_44829_1227">
<rect width="36" height="36" fill="white"/>
</clipPath>
</defs>
</svg>
