<svg width="31" height="31" viewBox="0 0 31 31" fill="none" xmlns="http://www.w3.org/2000/svg">
<path d="M29.7494 20.0322V20.0212C27.9209 16.6134 24.7224 14.3931 20.6984 14.8626C20.3437 14.9012 20.1664 14.5036 20.4416 14.3103C21.7197 13.4211 22.5759 12.3109 23.0529 11.0793C23.7807 9.21246 23.6522 7.05845 22.8144 4.90444V4.8934C22.7655 4.74979 22.7043 4.60619 22.637 4.47364C20.5333 0.320272 14.9131 -0.889286 9.76384 0.629566C9.63541 0.679274 8.5285 1.08246 8.31445 1.17083C13.3965 -0.220991 19.09 1.01618 20.9247 5.02043C20.992 5.15298 21.0592 5.3021 21.1082 5.4457V5.45675C21.946 7.59971 22.0744 9.76477 21.3589 11.6316C20.8574 12.9074 19.9584 14.0507 18.6008 14.9565C18.3562 15.1222 18.5396 15.553 18.931 15.4867C23.0651 14.7576 26.5571 17.2651 28.0432 20.5679V20.579C28.1166 20.7115 30.7034 26.9637 23.6339 30.515C23.5177 30.5758 22.3496 31.0729 21.2672 31.233C23.0835 31.1668 24.5696 30.5979 25.0833 30.3493C32.8133 26.5771 29.8289 20.1648 29.7494 20.0322Z" fill="#98D1F3"/>
<path d="M17.2379 28.394V28.3885C17.2318 28.267 17.2196 28.151 17.2012 28.0295C16.7548 24.4561 13.0671 21.8492 8.76177 21.9265C8.64558 21.932 8.52327 21.9375 8.40707 21.9486C8.22972 21.9486 8.0646 21.9651 7.88725 21.9872C7.7099 22.0038 7.54478 22.0204 7.37355 22.0535C7.25735 22.0646 7.14116 22.0867 7.02496 22.1032C6.73141 22.1474 6.43787 22.2082 6.14432 22.28C4.46255 22.6997 2.90308 23.5558 1.5332 24.677C8.37038 32.7628 16.3695 31.3378 16.7792 31.1114C17.1768 30.2387 17.2991 29.3716 17.2379 28.394Z" fill="url(#paint0_linear_46434_33)"/>
<path d="M24.014 22.2911C23.9896 22.164 23.9651 22.0315 23.9284 21.9045V21.8934C23.1946 19.0656 21.3783 16.8398 18.5712 16.1052C17.9107 15.934 17.7517 15.111 18.3082 14.7465C20.675 13.2056 21.5617 10.56 21.1948 7.67696V7.66591C21.1826 7.53335 21.152 7.40632 21.1275 7.27377C20.3814 3.39103 16.1556 0.756516 11.4588 1.09342C11.3304 1.10447 11.202 1.11552 11.0736 1.13761C10.8779 1.14865 10.7005 1.17627 10.5109 1.20941C10.3214 1.23702 10.1379 1.27016 9.95442 1.31435C9.826 1.33644 9.70368 1.36406 9.57526 1.39167C2.28553 2.94366 -2.66194 11.9794 -1.48775 18.1046C-1.32875 18.9496 -1.48775 18.1046 -1.31652 18.9883C-1.17586 19.7063 -0.943471 20.4408 -0.625463 21.1699C0.102286 22.8434 2.29777 23.4785 3.98565 22.5286C4.9886 21.9652 6.05882 21.5455 7.1902 21.3024C7.31862 21.2748 7.44094 21.2472 7.56936 21.2251C7.75894 21.1809 7.9363 21.1478 8.12588 21.1202C8.31546 21.0926 8.49892 21.0594 8.68851 21.0484C8.81693 21.0263 8.94536 21.0152 9.07378 21.0042C13.7766 20.6673 17.9964 23.3018 18.7425 27.1845C18.7669 27.3116 18.7914 27.4441 18.8036 27.5767V27.5877C18.9382 28.6482 18.7914 29.6975 18.4183 30.6751C22.2772 29.2391 24.6929 25.8203 24.014 22.2911ZM2.45677 22.3132C0.952347 22.3132 -0.264644 21.2141 -0.264644 19.8554C-0.264644 18.4967 0.952347 17.3976 2.45677 17.3976C3.96119 17.3976 5.17819 18.4967 5.17819 19.8554C5.17819 21.2085 3.96119 22.3132 2.45677 22.3132Z" fill="url(#paint1_linear_46434_33)"/>
<defs>
<linearGradient id="paint0_linear_46434_33" x1="17.2528" y1="21.9248" x2="8.86637" y2="35.6558" gradientUnits="userSpaceOnUse">
<stop stop-color="#91D9FF"/>
<stop offset="1" stop-color="#4B8BAD"/>
</linearGradient>
<linearGradient id="paint1_linear_46434_33" x1="24.128" y1="1.06445" x2="-5.12771" y2="26.0764" gradientUnits="userSpaceOnUse">
<stop stop-color="#91D9FF"/>
<stop offset="1" stop-color="#4B8BAD"/>
</linearGradient>
</defs>
</svg>
