<svg width="60" height="60" viewBox="0 0 60 60" fill="none" xmlns="http://www.w3.org/2000/svg">
<circle cx="30" cy="30" r="30" fill="#E05A00"/>
<path d="M35.9766 25.5703L35.4141 27.9375C35.3438 28.2891 35.0625 28.5234 34.7109 28.5234C28.8047 28.5 24 23.6953 24 17.7891C24 17.4375 24.2109 17.1562 24.5625 17.0859L26.9297 16.5234C27.2578 16.4531 27.6094 16.6406 27.75 16.9453L28.8516 19.5C28.9688 19.8047 28.8984 20.1562 28.6406 20.3438L27.375 21.375C28.1719 22.9922 29.4844 24.3047 31.125 25.1016L32.1562 23.8359C32.3438 23.6016 32.6953 23.5078 33 23.625L35.5547 24.7266C35.8594 24.8906 36.0469 25.2422 35.9766 25.5703Z" fill="white"/>
<path d="M9.95648 40V31.2695H11.5385V34.9668H15.5815V31.2695H17.1635V40H15.5815V36.2969H11.5385V40H9.95648ZM21.6982 40.1289C21.0576 40.1289 20.5029 39.9883 20.0341 39.707C19.5654 39.4258 19.2021 39.0312 18.9443 38.5234C18.6904 38.0156 18.5634 37.4258 18.5634 36.7539C18.5634 36.0781 18.6904 35.4863 18.9443 34.9785C19.2021 34.4668 19.5654 34.0703 20.0341 33.7891C20.5029 33.5078 21.0576 33.3672 21.6982 33.3672C22.3388 33.3672 22.8935 33.5078 23.3623 33.7891C23.831 34.0703 24.1943 34.4668 24.4521 34.9785C24.7099 35.4863 24.8388 36.0781 24.8388 36.7539C24.8388 37.4258 24.7099 38.0156 24.4521 38.5234C24.1943 39.0312 23.831 39.4258 23.3623 39.707C22.8935 39.9883 22.3388 40.1289 21.6982 40.1289ZM21.6982 38.8867C22.0537 38.8867 22.3466 38.793 22.5771 38.6055C22.8076 38.4141 22.9795 38.1562 23.0927 37.832C23.2099 37.5078 23.2685 37.1484 23.2685 36.7539C23.2685 36.3516 23.2099 35.9883 23.0927 35.6641C22.9795 35.3398 22.8076 35.084 22.5771 34.8965C22.3466 34.7051 22.0537 34.6094 21.6982 34.6094C21.3505 34.6094 21.0595 34.7051 20.8252 34.8965C20.5908 35.084 20.415 35.3398 20.2978 35.6641C20.1845 35.9883 20.1279 36.3516 20.1279 36.7539C20.1279 37.1484 20.1845 37.5078 20.2978 37.832C20.415 38.1562 20.5908 38.4141 20.8252 38.6055C21.0595 38.793 21.3505 38.8867 21.6982 38.8867ZM29.4321 33.4492V34.6445H25.6762V33.4492H29.4321ZM26.5962 31.8906H28.1372V38.0312C28.1372 38.2891 28.1938 38.4805 28.3071 38.6055C28.4204 38.7266 28.6001 38.7871 28.8462 38.7871C28.9126 38.7871 28.9868 38.7812 29.0688 38.7695C29.1509 38.7578 29.2251 38.7441 29.2915 38.7285L29.5552 39.9355C29.3911 39.9863 29.2251 40.0234 29.0571 40.0469C28.8891 40.0742 28.7212 40.0879 28.5532 40.0879C27.9438 40.0879 27.4653 39.9277 27.1177 39.6074C26.77 39.2832 26.5962 38.8418 26.5962 38.2832V31.8906ZM32.4434 31.2695V40H30.9023V31.2695H32.4434ZM34.0659 40V33.4492H35.607V40H34.0659ZM34.8394 32.5293C34.5933 32.5293 34.3823 32.4473 34.2066 32.2832C34.0308 32.1191 33.9429 31.9219 33.9429 31.6914C33.9429 31.457 34.0308 31.2578 34.2066 31.0938C34.3823 30.9297 34.5933 30.8477 34.8394 30.8477C35.0816 30.8477 35.2905 30.9297 35.4663 31.0938C35.6421 31.2578 35.73 31.4551 35.73 31.6855C35.73 31.9199 35.6421 32.1191 35.4663 32.2832C35.2905 32.4473 35.0816 32.5293 34.8394 32.5293ZM38.7705 36.168V40H37.2295V33.4492H38.7412V34.5684H38.8174C38.9659 34.2012 39.1983 33.9102 39.5147 33.6953C39.835 33.4766 40.2412 33.3672 40.7334 33.3672C41.1866 33.3672 41.5811 33.4629 41.917 33.6543C42.253 33.8457 42.5127 34.127 42.6963 34.498C42.8838 34.8652 42.9776 35.3105 42.9776 35.834V40H41.4366V36.0742C41.4366 35.6367 41.3233 35.2949 41.0967 35.0488C40.8702 34.7988 40.5577 34.6738 40.1592 34.6738C39.8897 34.6738 39.6495 34.7324 39.4385 34.8496C39.2315 34.9668 39.0674 35.1367 38.9463 35.3594C38.8291 35.5781 38.7705 35.8477 38.7705 36.168ZM47.5005 40.1289C46.8443 40.1289 46.2779 39.9922 45.8013 39.7188C45.3248 39.4414 44.9576 39.0508 44.6998 38.5469C44.4459 38.043 44.3189 37.4492 44.3189 36.7656C44.3189 36.0898 44.4459 35.498 44.6998 34.9902C44.9537 34.4785 45.3111 34.0801 45.772 33.7949C46.233 33.5098 46.7759 33.3672 47.4009 33.3672C47.8033 33.3672 48.1841 33.4316 48.5435 33.5605C48.9068 33.6895 49.2271 33.8887 49.5045 34.1582C49.7857 34.4277 50.0064 34.7715 50.1666 35.1895C50.3267 35.6035 50.4068 36.0977 50.4068 36.6719V37.1523H45.0396V36.1152H49.6392L48.9185 36.4199C48.9185 36.0488 48.8619 35.7266 48.7486 35.4531C48.6353 35.1758 48.4673 34.959 48.2447 34.8027C48.022 34.6465 47.7447 34.5684 47.4127 34.5684C47.0806 34.5684 46.7974 34.6465 46.563 34.8027C46.3287 34.959 46.1509 35.1699 46.0298 35.4355C45.9088 35.6973 45.8482 35.9902 45.8482 36.3145V37.0352C45.8482 37.4336 45.9166 37.7754 46.0533 38.0605C46.1939 38.3418 46.3892 38.5566 46.6392 38.7051C46.8931 38.8535 47.188 38.9277 47.524 38.9277C47.7427 38.9277 47.942 38.8965 48.1216 38.834C48.3052 38.7715 48.4615 38.6777 48.5904 38.5527C48.7232 38.4238 48.8248 38.2656 48.8951 38.0781L50.3365 38.248C50.2427 38.627 50.0689 38.959 49.815 39.2441C49.565 39.5254 49.2427 39.7441 48.8482 39.9004C48.4576 40.0527 48.0084 40.1289 47.5005 40.1289Z" fill="white"/>
</svg>
