<svg width="163" height="60" viewBox="0 0 163 60" fill="none" xmlns="http://www.w3.org/2000/svg">
<path d="M25.4324 20.8669C27.2769 19.9319 28.743 18.7118 29.8072 17.2067C30.8713 15.6901 31.4033 13.9911 31.4033 12.0869C31.4033 9.76071 30.8122 7.68541 29.6298 5.83817C28.4475 4.00234 26.804 2.56561 24.723 1.53937C22.6303 0.513128 20.2419 0 17.5461 0H3.13324C2.24647 0 1.50159 0.285056 0.910414 0.843788C0.307413 1.40252 0 2.1323 0 3.02171V42.3724C0 43.2276 0.307413 43.9459 0.910414 44.5275C1.51341 45.109 2.2583 45.4055 3.13324 45.4055H18.7994C21.7671 45.4055 24.4393 44.824 26.7803 43.6609C29.1332 42.4978 30.954 40.8672 32.2665 38.7805C33.5789 36.6938 34.2292 34.3221 34.2292 31.6881C34.2292 28.826 33.4488 26.4542 31.8763 24.5956C30.3156 22.7256 28.1637 21.4941 25.4324 20.8669ZM6.26648 5.58731H17.5343C19.9109 5.58731 21.8026 6.13465 23.2333 7.24071C24.6639 8.34678 25.3733 9.96593 25.3733 12.0982C25.3733 14.2305 24.6639 15.8611 23.2333 16.9786C21.8026 18.096 19.9109 18.6662 17.5343 18.6662H6.26648V5.58731ZM25.6098 37.6973C23.8836 39.1112 21.6134 39.8182 18.7994 39.8182H6.26648V24.2421H18.7994C21.6489 24.2421 23.9309 24.8807 25.6334 26.1578C27.336 27.4349 28.1992 29.2821 28.1992 31.6767C28.1992 34.2765 27.336 36.2834 25.6098 37.6973Z" fill="#6493AC"/>
<path d="M61.5468 14.9555C59.3214 13.6376 56.6742 12.9729 53.6054 12.9729C50.5015 12.9729 47.7255 13.6605 45.2775 15.0472C42.8294 16.4339 40.9202 18.3592 39.5498 20.8346C38.1794 23.3101 37.4883 26.1064 37.4883 29.2236C37.4883 32.3407 38.2145 35.1255 39.6669 37.578C41.1193 40.0305 43.1457 41.9444 45.7225 43.3311C48.3111 44.7178 51.2394 45.4054 54.4956 45.4054C56.3228 45.4054 58.2438 45.0731 60.2584 44.4084C62.2613 43.7437 63.948 42.8841 65.3067 41.8413C65.9392 41.3714 66.2672 40.7869 66.2672 40.0878C66.2672 39.3429 65.9041 38.6897 65.1896 38.1052C64.7445 37.7156 64.1588 37.5208 63.3975 37.5208C62.6362 37.5208 61.9802 37.7385 61.4297 38.1625C60.5981 38.7814 59.5322 39.3086 58.2321 39.744C56.9319 40.1681 55.6903 40.3858 54.4956 40.3858C51.4736 40.3858 48.9085 39.5492 46.8236 37.876C44.7269 36.2028 43.4736 34.0024 43.0285 31.2749H65.7167C66.5132 31.2749 67.1691 31.0343 67.6845 30.5415C68.1998 30.0601 68.4575 29.4413 68.4575 28.6964C68.4575 25.625 67.8602 22.8975 66.6654 20.5252C65.4824 18.13 63.7723 16.2849 61.5468 14.9555ZM43.0988 26.5762C43.5791 23.9633 44.7152 21.889 46.5307 20.3304C48.3346 18.7718 50.7006 17.9925 53.6054 17.9925C56.2291 17.9925 58.3609 18.7718 59.989 20.3304C61.6171 21.889 62.6127 23.9748 62.9758 26.5762H43.0988Z" fill="#6493AC"/>
<path d="M97.6348 14.7332C95.5367 13.5597 93.1694 12.9729 90.544 12.9729C88.6367 12.9729 86.8416 13.3181 85.1698 13.9969C83.4869 14.6757 82.0396 15.6421 80.8166 16.8961V16.2518C80.8166 15.3544 80.5473 14.6296 80.02 14.0774C79.4815 13.5366 78.7746 13.2605 77.8995 13.2605C77.058 13.2605 76.3624 13.5366 75.8127 14.0774C75.2629 14.6296 74.9824 15.3544 74.9824 16.2518V42.4026C74.9824 43.2655 75.2629 43.9788 75.8127 44.5425C76.3624 45.1063 77.058 45.3939 77.8995 45.3939C78.7746 45.3939 79.4815 45.1178 80.02 44.5425C80.5473 43.9788 80.8166 43.2655 80.8166 42.4026V25.87C80.8166 24.4664 81.1869 23.1893 81.9274 22.0618C82.6679 20.9343 83.7001 20.0369 85.0127 19.3697C86.3254 18.7024 87.784 18.3687 89.3884 18.3687C92.1372 18.3687 94.3362 19.1856 95.9968 20.8078C97.6573 22.43 98.4875 24.823 98.4875 27.9869V42.4141C98.4875 43.277 98.7568 43.9903 99.3178 44.554C99.8675 45.1178 100.563 45.4054 101.405 45.4054C102.235 45.4054 102.942 45.1293 103.491 44.554C104.041 43.9903 104.322 43.277 104.322 42.4141V27.9869C104.322 24.823 103.727 22.1078 102.549 19.8644C101.371 17.6094 99.7329 15.9067 97.6348 14.7332Z" fill="#6493AC"/>
<path d="M126.317 39.5661H124.397C123.188 39.5661 122.167 39.0383 121.346 37.9828C120.514 36.9273 120.104 35.6195 120.104 34.0592V19.615H124.908C125.695 19.615 126.339 19.3855 126.827 18.9152C127.315 18.4448 127.559 17.8597 127.559 17.1598C127.559 16.3797 127.315 15.7602 126.827 15.2898C126.339 14.8194 125.695 14.5899 124.908 14.5899H120.104V6.16897C120.104 5.30852 119.837 4.60866 119.316 4.06945C118.783 3.51876 118.107 3.24341 117.286 3.24341C116.454 3.24341 115.777 3.51876 115.244 4.06945C114.712 4.60866 114.457 5.31999 114.457 6.16897V14.5899H111.861C111.073 14.5899 110.429 14.8194 109.941 15.2898C109.453 15.7602 109.209 16.3797 109.209 17.1598C109.209 17.8597 109.453 18.4448 109.941 18.9152C110.429 19.3855 111.073 19.615 111.861 19.615H114.457V34.0592C114.457 36.2046 114.889 38.132 115.755 39.8529C116.62 41.5738 117.818 42.9276 119.349 43.9142C120.88 44.9124 122.556 45.4057 124.408 45.4057H125.429C126.405 45.4057 127.215 45.1303 127.837 44.5911C128.458 44.0404 128.769 43.3406 128.769 42.4801C128.769 41.6197 128.536 40.9198 128.058 40.3806C127.559 39.8414 126.993 39.5661 126.317 39.5661Z" fill="#6493AC"/>
<path d="M161.175 13.2777C160.751 13.0784 160.28 12.9729 159.775 12.9729C158.765 12.9729 157.996 13.5473 157.491 14.7077L148.067 36.3927L137.357 14.6491C136.806 13.5355 135.991 12.9729 134.901 12.9729C134.465 12.9729 134.086 13.055 133.73 13.2073C133.225 13.4418 132.812 13.7817 132.502 14.2271C132.192 14.6608 132.031 15.1414 132.031 15.6572C132.031 16.1377 132.123 16.548 132.33 16.9114L145.496 42.4293L139.642 55.874C139.412 56.3546 139.297 56.8352 139.297 57.3041C139.297 58.3356 139.883 59.1209 141.053 59.6367C141.604 59.8711 142.064 60 142.454 60C143.51 60 144.267 59.3788 144.738 58.148L162.645 17.0403C162.874 16.4777 163 16.0088 163 15.6103C162.989 14.5319 162.381 13.7465 161.175 13.2777Z" fill="#6493AC"/>
</svg>
