<svg width="163" height="61" viewBox="0 0 163 61" fill="none" xmlns="http://www.w3.org/2000/svg">
<ellipse cx="15.5" cy="33" rx="14.5" ry="11" fill="url(#paint0_radial_46434_669)"/>
<path d="M25.4326 21.6614C27.277 20.7264 28.7432 19.5063 29.8073 18.0012C30.8714 16.4846 31.4035 14.7856 31.4035 12.8814C31.4035 10.5552 30.8123 8.47988 29.6299 6.63263C28.4476 4.79679 26.8041 3.36006 24.7231 2.33381C22.6304 1.30756 20.242 0.794434 17.5462 0.794434H3.13325C2.24648 0.794434 1.5016 1.07949 0.910417 1.63823C0.307414 2.19696 0 2.92674 0 3.81615V43.167C0 44.0223 0.307414 44.7406 0.910417 45.3221C1.51342 45.9037 2.25831 46.2002 3.13325 46.2002H18.7995C21.7672 46.2002 24.4394 45.6186 26.7804 44.4556C29.1333 43.2925 30.9542 41.6619 32.2666 39.5751C33.579 37.4884 34.2293 35.1167 34.2293 32.4827C34.2293 29.6206 33.449 27.2488 31.8764 25.3902C30.3157 23.5201 28.1638 22.2886 25.4326 21.6614ZM6.26651 6.38177H17.5344C19.9109 6.38177 21.8027 6.92912 23.2334 8.03518C24.664 9.14125 25.3734 10.7604 25.3734 12.8927C25.3734 15.025 24.664 16.6556 23.2334 17.7731C21.8027 18.8906 19.9109 19.4607 17.5344 19.4607H6.26651V6.38177ZM25.6099 38.4919C23.8837 39.9058 21.6135 40.6128 18.7995 40.6128H6.26651V25.0366H18.7995C21.649 25.0366 23.931 25.6752 25.6336 26.9523C27.3361 28.2294 28.1993 30.0767 28.1993 32.4713C28.1993 35.0711 27.3361 37.078 25.6099 38.4919Z" fill="white"/>
<path d="M61.545 15.7497C59.3195 14.4318 56.6723 13.7671 53.6035 13.7671C50.4996 13.7671 47.7236 14.4547 45.2755 15.8414C42.8275 17.2281 40.9183 19.1535 39.5478 21.6289C38.1774 24.1043 37.4863 26.9006 37.4863 30.0178C37.4863 33.135 38.2125 35.9199 39.665 38.3724C41.1174 40.8249 43.1437 42.7388 45.7206 44.1255C48.3092 45.5122 51.2375 46.1998 54.4937 46.1998C56.321 46.1998 58.2419 45.8674 60.2565 45.2027C62.2595 44.538 63.9462 43.6785 65.3049 42.6356C65.9374 42.1657 66.2654 41.5812 66.2654 40.8822C66.2654 40.1373 65.9023 39.484 65.1878 38.8996C64.7427 38.5099 64.157 38.3151 63.3956 38.3151C62.6343 38.3151 61.9784 38.5328 61.4279 38.9568C60.5962 39.5757 59.5303 40.1029 58.2302 40.5384C56.93 40.9624 55.6884 41.1802 54.4937 41.1802C51.4717 41.1802 48.9066 40.3435 46.8217 38.6703C44.725 36.9971 43.4717 34.7967 43.0266 32.0692H65.7148C66.5113 32.0692 67.1673 31.8285 67.6826 31.3358C68.198 30.8544 68.4557 30.2355 68.4557 29.4906C68.4557 26.4193 67.8583 23.6917 66.6636 21.3195C65.4806 18.9243 63.7705 17.0791 61.545 15.7497ZM43.0969 27.3705C43.5771 24.7576 44.7133 22.6832 46.5288 21.1246C48.3326 19.566 50.6987 18.7867 53.6035 18.7867C56.2272 18.7867 58.359 19.566 59.9871 21.1246C61.6153 22.6832 62.6109 24.769 62.974 27.3705H43.0969Z" fill="white"/>
<path d="M97.6349 15.5274C95.5368 14.3538 93.1695 13.7671 90.5441 13.7671C88.6367 13.7671 86.8416 14.1123 85.1699 14.7911C83.4869 15.4699 82.0396 16.4363 80.8166 17.6903V17.046C80.8166 16.1486 80.5474 15.4238 80.02 14.8716C79.4815 14.3308 78.7747 14.0547 77.8995 14.0547C77.0581 14.0547 76.3624 14.3308 75.8127 14.8716C75.2629 15.4238 74.9824 16.1486 74.9824 17.046V43.1969C74.9824 44.0598 75.2629 44.7731 75.8127 45.3369C76.3624 45.9006 77.0581 46.1883 77.8995 46.1883C78.7747 46.1883 79.4815 45.9121 80.02 45.3369C80.5474 44.7731 80.8166 44.0598 80.8166 43.1969V26.6642C80.8166 25.2606 81.1869 23.9835 81.9274 22.8561C82.6679 21.7286 83.7001 20.8312 85.0128 20.1639C86.3255 19.4966 87.784 19.163 89.3885 19.163C92.1373 19.163 94.3363 19.9798 95.9968 21.602C97.6573 23.2242 98.4876 25.6173 98.4876 28.7811V43.2085C98.4876 44.0713 98.7569 44.7847 99.3178 45.3484C99.8676 45.9122 100.563 46.1998 101.405 46.1998C102.235 46.1998 102.942 45.9237 103.492 45.3484C104.041 44.7847 104.322 44.0713 104.322 43.2085V28.7811C104.322 25.6173 103.727 22.9021 102.549 20.6586C101.371 18.4036 99.733 16.7009 97.6349 15.5274Z" fill="white"/>
<path d="M126.317 40.3607H124.397C123.188 40.3607 122.167 39.8329 121.346 38.7774C120.514 37.7219 120.104 36.4141 120.104 34.8538V20.4095H124.908C125.695 20.4095 126.339 20.1801 126.827 19.7097C127.315 19.2393 127.559 18.6542 127.559 17.9543C127.559 17.1742 127.315 16.5546 126.827 16.0843C126.339 15.6139 125.695 15.3844 124.908 15.3844H120.104V6.96342C120.104 6.10296 119.838 5.4031 119.316 4.86388C118.784 4.31319 118.107 4.03784 117.286 4.03784C116.454 4.03784 115.777 4.31319 115.244 4.86388C114.712 5.4031 114.457 6.11444 114.457 6.96342V15.3844H111.861C111.073 15.3844 110.429 15.6139 109.941 16.0843C109.453 16.5546 109.209 17.1742 109.209 17.9543C109.209 18.6542 109.453 19.2393 109.941 19.7097C110.429 20.1801 111.073 20.4095 111.861 20.4095H114.457V34.8538C114.457 36.9992 114.889 38.9266 115.755 40.6475C116.62 42.3684 117.818 43.7222 119.349 44.7089C120.88 45.707 122.556 46.2003 124.408 46.2003H125.429C126.405 46.2003 127.215 45.925 127.837 45.3858C128.458 44.8351 128.769 44.1352 128.769 43.2748C128.769 42.4143 128.536 41.7145 128.059 41.1752C127.559 40.636 126.993 40.3607 126.317 40.3607Z" fill="white"/>
<path d="M161.176 14.0719C160.751 13.8726 160.28 13.7671 159.775 13.7671C158.765 13.7671 157.996 14.3415 157.491 15.5019L148.067 37.187L137.357 15.4433C136.806 14.3297 135.991 13.7671 134.901 13.7671C134.465 13.7671 134.086 13.8492 133.73 14.0015C133.225 14.236 132.812 14.5759 132.502 15.0213C132.192 15.455 132.031 15.9356 132.031 16.4514C132.031 16.932 132.123 17.3422 132.33 17.7056L145.496 43.2237L139.642 56.6684C139.412 57.149 139.297 57.6296 139.297 58.0985C139.297 59.13 139.883 59.9153 141.053 60.4311C141.604 60.6655 142.064 60.7945 142.454 60.7945C143.51 60.7945 144.267 60.1732 144.738 58.9425L162.645 17.8345C162.874 17.2719 163.001 16.803 163.001 16.4045C162.989 15.3261 162.381 14.5407 161.176 14.0719Z" fill="white"/>
<defs>
<radialGradient id="paint0_radial_46434_669" cx="0" cy="0" r="1" gradientUnits="userSpaceOnUse" gradientTransform="translate(30 22) rotate(142.815) scale(36.4005 321.819)">
<stop stop-color="#76AECC"/>
<stop offset="1" stop-color="#6493AC"/>
</radialGradient>
</defs>
</svg>
