<svg width="72" height="56" viewBox="0 0 72 56" fill="none" xmlns="http://www.w3.org/2000/svg">
<g clip-path="url(#clip0_44855_731)">
<path d="M35.8301 14.0629C41.4706 -0.524334 62.8072 -7.02229 70.041 10.7533C73.5974 19.457 72.3712 30.3679 65.873 37.476C62.318 41.5206 57.4125 43.8505 52.6299 46.1801C46.2528 49.2447 40.1218 52.7999 33.7461 55.8646C33.2553 56.1107 32.7642 55.9886 32.5195 55.7426C32.4844 55.7693 32.4476 55.7933 32.4082 55.8158C34.6132 50.4595 36.1112 44.1375 36.7637 37.3529C37.5169 29.5181 37.5794 22.5084 36.4004 16.6254C37.5787 22.5079 37.5161 29.5182 36.7617 37.351C36.1092 44.1357 34.6113 50.4585 32.4062 55.8148C31.9071 56.1056 31.1435 56.0477 30.8018 55.2523C28.2269 48.7558 21.4823 46.1801 15.8418 42.7484C11.7948 40.2981 7.87191 37.4777 4.92871 33.8002C-0.220946 27.4246 -1.6919 19.0892 2.23145 11.7338C9.87151 -2.32898 30.461 0.514501 35.6602 13.6224C35.6607 13.6242 35.6606 13.6266 35.6611 13.6283C35.718 13.7724 35.7774 13.916 35.8301 14.0629ZM35.7559 13.9584C35.8101 14.1482 35.8639 14.339 35.915 14.5316C35.8639 14.3391 35.8101 14.1482 35.7559 13.9584Z" fill="#E05A00"/>
<path d="M43.125 33.5781C43.5469 34.0469 43.5469 34.75 43.125 35.1719C42.6562 35.6406 41.9531 35.6406 41.5312 35.1719L36 29.5938L30.4219 35.1719C29.9531 35.6406 29.25 35.6406 28.8281 35.1719C28.3594 34.75 28.3594 34.0469 28.8281 33.5781L34.4062 28L28.8281 22.4219C28.3594 21.9531 28.3594 21.25 28.8281 20.8281C29.25 20.3594 29.9531 20.3594 30.375 20.8281L36 26.4531L41.5781 20.875C42 20.4062 42.7031 20.4062 43.125 20.875C43.5938 21.2969 43.5938 22 43.125 22.4688L37.5469 28L43.125 33.5781Z" fill="white"/>
</g>
<defs>
<clipPath id="clip0_44855_731">
<rect width="72" height="56" fill="white"/>
</clipPath>
</defs>
</svg>
