<svg width="64" height="64" viewBox="0 0 64 64" fill="none" xmlns="http://www.w3.org/2000/svg">
<path d="M48 26.3199C48 17.4979 40.822 10.3199 32 10.3199C23.178 10.3199 16 17.4979 16 26.3199C16 35.1419 23.178 42.3199 32 42.3199C40.822 42.3199 48 35.1419 48 26.3199ZM32 40.3199C24.28 40.3199 18 34.0399 18 26.3199C18 18.5999 24.28 12.3199 32 12.3199C39.72 12.3199 46 18.5999 46 26.3199C46 34.0399 39.72 40.3199 32 40.3199Z" fill="#6493AC"/>
<path d="M61.7659 49.424L51.4169 37.091C51.5629 36.189 51.7339 35.344 52.0349 34.618C52.3989 33.739 53.0619 32.85 53.7649 31.911C54.9619 30.307 56.3199 28.491 56.3199 26.32C56.3199 24.149 54.9629 22.332 53.7639 20.728C53.0619 19.788 52.3989 18.9 52.0349 18.021C51.6449 17.083 51.4729 15.947 51.2919 14.744C50.9829 12.702 50.6639 10.59 49.1969 9.123C47.7299 7.656 45.6169 7.337 43.5739 7.027C42.3719 6.845 41.2359 6.673 40.2989 6.285C39.4199 5.921 38.5319 5.257 37.5919 4.555C35.9879 3.358 34.1719 2 31.9999 2C29.8279 2 28.0109 3.357 26.4079 4.556C25.4679 5.258 24.5809 5.921 23.7019 6.285C22.7639 6.674 21.6279 6.846 20.4259 7.027C18.3829 7.337 16.2699 7.656 14.8029 9.123C13.3359 10.59 13.0169 12.702 12.7079 14.744C12.5259 15.947 12.3539 17.083 11.9649 18.021C11.6009 18.9 10.9379 19.788 10.2359 20.727C9.03792 22.331 7.68092 24.148 7.68092 26.32C7.68092 28.492 9.03792 30.308 10.2359 31.912C10.9379 32.851 11.6009 33.739 11.9649 34.618C12.2659 35.344 12.4369 36.189 12.5829 37.09L2.23392 49.424C2.11611 49.5643 2.03916 49.7343 2.01147 49.9154C1.98379 50.0965 2.00644 50.2817 2.07695 50.4508C2.14746 50.6199 2.26311 50.7664 2.41125 50.8742C2.5594 50.982 2.73433 51.0469 2.91692 51.062L12.5859 51.874L15.0639 61.256C15.1108 61.4332 15.2054 61.594 15.3374 61.7211C15.4695 61.8481 15.6339 61.9364 15.8128 61.9764C15.9916 62.0163 16.178 62.0063 16.3515 61.9475C16.5251 61.8888 16.6792 61.7834 16.7969 61.643L27.5039 48.883C28.8329 49.814 30.3079 50.64 32.0009 50.64C33.6939 50.64 35.1689 49.814 36.4979 48.882L47.2049 61.642C47.3225 61.7825 47.4765 61.8879 47.65 61.9467C47.8235 62.0056 48.0099 62.0155 48.1887 61.9756C48.3675 61.9356 48.5319 61.8473 48.6638 61.7202C48.7958 61.5931 48.8903 61.4322 48.9369 61.255L51.4159 51.873L61.0849 51.061C61.2672 51.0454 61.4418 50.9801 61.5896 50.8722C61.7374 50.7643 61.8527 50.6179 61.9231 50.449C61.9934 50.2801 62.016 50.0951 61.9885 49.9142C61.961 49.7332 61.8843 49.5634 61.7669 49.423L61.7659 49.424ZM16.5049 58.879L14.3389 50.681C14.2861 50.4816 14.1729 50.3034 14.0148 50.1709C13.8567 50.0384 13.6615 49.9581 13.4559 49.941L5.00692 49.232L13.0149 39.688C13.3069 41.118 13.7669 42.48 14.8039 43.517C16.2709 44.984 18.3829 45.303 20.4249 45.613C21.6279 45.795 22.7639 45.967 23.7019 46.356C24.4159 46.652 25.1379 47.148 25.8869 47.699L16.5049 58.879ZM27.6059 46.483C26.6089 45.739 25.5789 44.968 24.4689 44.508C23.3049 44.026 21.9929 43.827 20.7249 43.635C18.9229 43.363 17.2209 43.105 16.2189 42.103C15.2169 41.101 14.9599 39.399 14.6869 37.596C14.4949 36.327 14.2969 35.017 13.8139 33.853C13.3539 32.743 12.5839 31.712 11.8389 30.715C10.7299 29.23 9.68192 27.827 9.68192 26.32C9.68192 24.813 10.7299 23.41 11.8399 21.924C12.5849 20.927 13.3539 19.897 13.8149 18.786C14.2969 17.623 14.4959 16.31 14.6879 15.043C14.9599 13.24 15.2179 11.538 16.2199 10.536C17.2219 9.534 18.9249 9.276 20.7279 9.004C21.9959 8.813 23.3069 8.614 24.4709 8.132C25.5809 7.671 26.6109 6.902 27.6079 6.157C29.0929 5.047 30.4969 3.999 32.0039 3.999C33.5109 3.999 34.9139 5.047 36.3989 6.156C37.3959 6.901 38.4269 7.671 39.5379 8.132C40.7009 8.614 42.0129 8.813 43.2799 9.004C45.0829 9.276 46.7859 9.534 47.7879 10.536C48.7899 11.538 49.0469 13.24 49.3189 15.042C49.5109 16.311 49.7099 17.622 50.1919 18.786C50.6519 19.896 51.4219 20.928 52.1679 21.924C53.2769 23.409 54.3249 24.813 54.3249 26.32C54.3249 27.827 53.2769 29.229 52.1679 30.714C51.4229 31.711 50.6519 32.742 50.1919 33.853C49.7099 35.017 49.5109 36.329 49.3189 37.596C49.0469 39.399 48.7889 41.101 47.7869 42.103C46.7849 43.105 45.0829 43.363 43.2809 43.635C42.0119 43.827 40.7009 44.026 39.5379 44.508C38.4279 44.968 37.3959 45.738 36.3989 46.484C34.9139 47.592 33.5109 48.64 32.0039 48.64C30.4969 48.64 29.0939 47.592 27.6089 46.483H27.6059ZM50.5449 49.941C50.3394 49.9584 50.1443 50.0388 49.9863 50.1712C49.8282 50.3037 49.715 50.4817 49.6619 50.681L47.4969 58.879L38.1139 47.698C38.8629 47.147 39.5849 46.651 40.2999 46.355C41.2379 45.965 42.3739 45.793 43.5759 45.612C45.6189 45.302 47.7299 44.983 49.1969 43.516C50.2339 42.479 50.6939 41.116 50.9859 39.686L58.9949 49.23L50.5449 49.939V49.941Z" fill="#6493AC"/>
<path d="M30.5489 16.927C30.8483 16.0057 32.1517 16.0057 32.4511 16.9271L34.0819 21.9463C34.2158 22.3583 34.5997 22.6373 35.033 22.6373H40.3105C41.2792 22.6373 41.682 23.8769 40.8983 24.4463L36.6287 27.5484C36.2782 27.803 36.1315 28.2544 36.2654 28.6664L37.8963 33.6857C38.1956 34.607 37.1411 35.3731 36.3574 34.8037L32.0878 31.7016C31.7373 31.447 31.2627 31.447 30.9122 31.7016L26.6426 34.8037C25.8589 35.3731 24.8044 34.607 25.1037 33.6857L26.7346 28.6664C26.8685 28.2544 26.7218 27.803 26.3713 27.5484L22.1017 24.4463C21.318 23.8769 21.7208 22.6373 22.6895 22.6373H27.967C28.4003 22.6373 28.7842 22.3583 28.9181 21.9463L30.5489 16.927Z" fill="#E07700"/>
</svg>
