<svg width="64" height="64" viewBox="0 0 64 64" fill="none" xmlns="http://www.w3.org/2000/svg">
<path d="M58.5495 64H6.25067C3.90733 64 2 62.1407 2 59.8563V20.1088C2 19.5197 2.47653 19.0421 3.06667 19.0421H61.7333C62.3235 19.0421 62.8 19.5197 62.8 20.1088V59.8563C62.8 62.1407 60.8927 64 58.5495 64ZM4.13333 21.1755V59.8563C4.13333 60.964 5.08387 61.8667 6.25053 61.8667H58.5484C59.7161 61.8667 60.6657 60.964 60.6657 59.8563V21.1755H4.13333ZM16.4792 13.026C14.3011 13.026 12.5281 11.2531 12.5281 9.074V3.952C12.528 1.77293 14.3011 0 16.4792 0C18.6584 0 20.4307 1.77293 20.4307 3.952V9.07493C20.4307 11.2531 18.6584 13.026 16.4792 13.026ZM16.4792 2.13333C15.4771 2.13333 14.6615 2.94947 14.6615 3.952V9.07493C14.6615 10.0781 15.4771 10.8937 16.4792 10.8937C17.4819 10.8937 18.2973 10.0781 18.2973 9.07507V3.952C18.2973 2.94933 17.4828 2.1332 16.4792 2.1332V2.13333ZM48.3208 13.026C46.1416 13.026 44.3693 11.2531 44.3693 9.074V3.952C44.3693 1.77293 46.1417 0 48.3208 0C50.4989 0 52.2719 1.77293 52.2719 3.952V9.07493C52.2719 11.2531 50.4989 13.026 48.3208 13.026ZM48.3208 2.13333C47.3181 2.13333 46.5027 2.94947 46.5027 3.952V9.07493C46.5027 10.0781 47.3183 10.8937 48.3208 10.8937C49.3229 10.8937 50.1385 10.0781 50.1385 9.07507V3.952C50.1385 2.94933 49.3229 2.1332 48.3208 2.1332V2.13333Z" fill="#6493AC"/>
<path d="M45.4355 7.33866H19.3635C19.0806 7.33866 18.8093 7.22627 18.6093 7.02624C18.4093 6.8262 18.2969 6.55489 18.2969 6.27199C18.2969 5.98909 18.4093 5.71778 18.6093 5.51774C18.8093 5.3177 19.0806 5.20532 19.3635 5.20532H45.4345C45.7174 5.20532 45.9887 5.3177 46.1887 5.51774C46.3888 5.71778 46.5011 5.98909 46.5011 6.27199C46.5011 6.86092 46.0241 7.33866 45.4355 7.33866Z" fill="#6493AC"/>
<path d="M61.7333 21.1755H3.06667C2.47653 21.1755 2 20.6973 2 20.1088V9.34947C2 7.06453 3.90733 5.20533 6.25053 5.20533H13.5947C13.8776 5.20533 14.1489 5.31771 14.3489 5.51775C14.549 5.71779 14.6613 5.9891 14.6613 6.272C14.6613 6.5549 14.549 6.82621 14.3489 7.02625C14.1489 7.22629 13.8776 7.33867 13.5947 7.33867H6.25053C5.08387 7.33867 4.13333 8.24133 4.13333 9.34947V19.0421H60.6667V9.34947C60.6667 8.2412 59.7161 7.33853 58.5495 7.33853H51.2053C50.9224 7.33853 50.6511 7.22615 50.4511 7.02611C50.251 6.82608 50.1387 6.55476 50.1387 6.27187C50.1387 5.98897 50.251 5.71766 50.4511 5.51762C50.6511 5.31758 50.9224 5.2052 51.2053 5.2052H58.5496C60.8927 5.20533 62.8 7.06453 62.8 9.34947V20.1088C62.8 20.6973 62.3235 21.1755 61.7333 21.1755Z" fill="#6493AC"/>
<path d="M31.75 28C24.7199 28 19 33.7199 19 40.75C19 47.7801 24.7199 53.5 31.75 53.5C38.7801 53.5 44.5 47.7801 44.5 40.75C44.5 33.7199 38.7801 28 31.75 28ZM38.8759 37.3947L30.7274 45.4793C30.2481 45.9586 29.4812 45.9906 28.9699 45.5113L24.656 41.5808C24.1447 41.1015 24.1128 40.3026 24.5602 39.7914C25.0395 39.2801 25.8383 39.2481 26.3496 39.7274L29.7688 42.859L37.0545 35.5733C37.5658 35.062 38.3647 35.062 38.8759 35.5733C39.3872 36.0846 39.3872 36.8835 38.8759 37.3947Z" fill="#E07700"/>
</svg>
