<svg width="64" height="64" viewBox="0 0 64 64" fill="none" xmlns="http://www.w3.org/2000/svg">
<g clip-path="url(#clip0_44829_1430)">
<path d="M32.0004 42.1C37.5785 42.1 42.1004 37.5781 42.1004 32C42.1004 26.4219 37.5785 21.9 32.0004 21.9C26.4223 21.9 21.9004 26.4219 21.9004 32C21.9004 37.5781 26.4223 42.1 32.0004 42.1Z" fill="#DF7826"/>
<path d="M59.262 37.1373C57.7487 45.1947 52.6274 52.2427 45.4674 56.232L44.7447 54.064C44.5607 53.5053 43.9594 53.2027 43.4007 53.3867C43.2407 53.4387 43.0967 53.528 42.978 53.648L37.6447 58.9813C37.2287 59.3973 37.2274 60.072 37.6434 60.488C37.8074 60.652 38.0194 60.7573 38.2487 60.7907L45.7154 61.8573C46.082 61.9093 46.4487 61.7693 46.6874 61.4867C46.9247 61.2027 46.998 60.816 46.8807 60.4653L46.154 58.2867C54.046 54.028 59.706 46.3427 61.358 37.5333L59.262 37.1373ZM40.6634 58.9787L43.2674 56.3733L44.31 59.4987L40.6634 58.9787Z" fill="#6493AC"/>
<path d="M59.262 37.1373C57.7487 45.1947 52.6274 52.2427 45.4674 56.232L44.7447 54.064C44.5967 53.616 44.1807 53.332 43.734 53.332C43.6234 53.332 43.5114 53.3493 43.4007 53.3853C43.2407 53.4373 43.0967 53.5267 42.978 53.6467L37.6447 58.98C37.2287 59.396 37.2274 60.0707 37.6434 60.4867C37.8074 60.6507 38.0194 60.756 38.2487 60.7893L45.7154 61.856C45.766 61.8627 45.8167 61.8667 45.8674 61.8667C46.1807 61.8667 46.482 61.7293 46.6874 61.484C46.9247 61.2 46.998 60.8133 46.8807 60.4627L46.154 58.284C54.046 54.0253 59.706 46.34 61.358 37.5307L59.262 37.1373ZM44.31 59.5L40.6634 58.98L43.2674 56.3747L44.31 59.5Z" fill="#6493AC"/>
<path d="M60.7996 35.2C62.5669 35.2 63.9996 33.7674 63.9996 32C63.9996 30.2327 62.5669 28.8 60.7996 28.8C59.0323 28.8 57.5996 30.2327 57.5996 32C57.5996 33.7674 59.0323 35.2 60.7996 35.2Z" fill="#DF7826"/>
<path d="M32.0008 6.4C33.7681 6.4 35.2008 4.96731 35.2008 3.2C35.2008 1.43269 33.7681 0 32.0008 0C30.2335 0 28.8008 1.43269 28.8008 3.2C28.8008 4.96731 30.2335 6.4 32.0008 6.4Z" fill="#DF7826"/>
<path d="M56.2327 18.5307L54.0634 19.2534C53.5047 19.4427 53.2034 20.048 53.3927 20.608C53.4447 20.7627 53.5327 20.904 53.6474 21.02L58.9807 26.3534C59.2661 26.64 59.6887 26.74 60.0714 26.612C60.4541 26.484 60.7327 26.1507 60.7901 25.7507L61.8567 18.284C61.9087 17.9174 61.7674 17.5507 61.4834 17.3147C61.1994 17.0787 60.8141 17.0067 60.4621 17.1214L58.2834 17.848C54.0354 9.95736 46.3501 4.29869 37.5301 2.64136L37.1367 4.73869C45.2061 6.25469 52.2541 11.376 56.2327 18.5307ZM59.5021 19.6907L58.9807 23.3374L56.3767 20.732L59.5021 19.6907Z" fill="#6493AC"/>
<path d="M37.532 2.6427L37.1387 4.74003C45.2067 6.25603 52.2547 11.3774 56.2333 18.532L54.064 19.2547C53.5053 19.444 53.204 20.0494 53.3933 20.6094C53.4453 20.764 53.5333 20.9054 53.648 21.0214L58.9813 26.3547C59.184 26.5587 59.4573 26.668 59.7347 26.668C59.848 26.668 59.9613 26.6507 60.072 26.6134C60.4547 26.4854 60.7333 26.152 60.7907 25.752L61.8573 18.2854C61.9093 17.9187 61.768 17.552 61.484 17.316C61.288 17.1547 61.0453 17.0694 60.7987 17.0694C60.6867 17.0694 60.5733 17.0867 60.4627 17.1227L58.284 17.8494C54.0373 9.9587 46.352 4.30003 37.532 2.6427ZM58.98 23.3374L56.376 20.732L59.5013 19.6894L58.98 23.3374Z" fill="#6493AC"/>
<path d="M7.76876 45.4681L9.93809 44.7454C10.2888 44.6294 10.5554 44.3387 10.6394 43.9801C10.7248 43.6201 10.6168 43.2414 10.3541 42.9801L5.02076 37.6467C4.60343 37.2307 3.92743 37.2321 3.5101 37.6494C3.34876 37.8121 3.24343 38.0227 3.2101 38.2494L2.14343 45.7161C2.09143 46.0827 2.23276 46.4494 2.51676 46.6854C2.79943 46.9227 3.1861 46.9974 3.53676 46.8801L5.71543 46.1534C9.96876 54.0547 17.6554 59.7134 26.4701 61.3587L26.8621 59.2614C18.7981 57.7561 11.7514 52.6347 7.76876 45.4681ZM4.49943 44.3094L5.02076 40.6627L7.62476 43.2681L4.49943 44.3094Z" fill="#6493AC"/>
<path d="M4.26651 37.3347C3.99317 37.3347 3.71851 37.44 3.51051 37.6494C3.34917 37.812 3.24384 38.0227 3.21051 38.2494L2.14384 45.716C2.09051 46.0827 2.23317 46.4494 2.51717 46.6854C2.71184 46.8481 2.95451 46.9347 3.19984 46.9347C3.31317 46.9347 3.42651 46.916 3.53584 46.88L5.71451 46.1534C9.96784 54.0547 17.6545 59.7134 26.4692 61.3587L26.8612 59.2614C18.7972 57.756 11.7492 52.6347 7.76651 45.4681L9.93584 44.7454C10.2865 44.6294 10.5532 44.3387 10.6372 43.98C10.7225 43.62 10.6145 43.2414 10.3518 42.98L5.01851 37.6467C4.81184 37.4387 4.53984 37.3347 4.26651 37.3347ZM4.49851 44.3094L5.01984 40.6627L7.62384 43.268L4.49851 44.3094Z" fill="#6493AC"/>
<path d="M3.2 35.2C4.96731 35.2 6.4 33.7674 6.4 32C6.4 30.2327 4.96731 28.8 3.2 28.8C1.43269 28.8 0 30.2327 0 32C0 33.7674 1.43269 35.2 3.2 35.2Z" fill="#DF7826"/>
<path d="M32.0008 64C33.7681 64 35.2008 62.5673 35.2008 60.8C35.2008 59.0327 33.7681 57.6 32.0008 57.6C30.2335 57.6 28.8008 59.0327 28.8008 60.8C28.8008 62.5673 30.2335 64 32.0008 64Z" fill="#DF7826"/>
<path d="M41.8061 47.8387C42.2208 48.2547 42.8941 48.2574 43.3101 47.8427C43.3115 47.8414 43.3128 47.8401 43.3141 47.8387L47.8395 43.3134C48.2555 42.8974 48.2555 42.2214 47.8395 41.8054L45.9128 39.8801C46.5608 38.7427 47.0648 37.5294 47.4141 36.2667H50.1341C50.7234 36.2667 51.2008 35.7894 51.2008 35.2001V28.8C51.2008 28.2107 50.7234 27.7334 50.1341 27.7334H47.4168C47.0674 26.4707 46.5634 25.2574 45.9168 24.1187L47.8408 22.1947C48.2568 21.7787 48.2568 21.1027 47.8408 20.6867L43.3154 16.1614C42.8994 15.7454 42.2248 15.744 41.8088 16.16L41.8074 16.1614L39.8834 18.084C38.7448 17.436 37.5315 16.932 36.2688 16.584V13.8667C36.2688 13.2774 35.7915 12.8 35.2021 12.8H28.8021C28.2128 12.8 27.7354 13.2774 27.7354 13.8667V16.584C26.4741 16.9334 25.2594 17.4387 24.1221 18.0854L22.1981 16.16C21.7834 15.744 21.1101 15.7414 20.6941 16.156C20.6928 16.1574 20.6914 16.1587 20.6901 16.16L16.1648 20.6854C15.7488 21.1014 15.7488 21.7774 16.1648 22.1934L18.0914 24.1187C17.4434 25.256 16.9394 26.4694 16.5901 27.732H13.8674C13.2781 27.732 12.8008 28.2094 12.8008 28.7987V35.1987C12.8008 35.788 13.2781 36.2654 13.8674 36.2654H16.5848C16.9341 37.528 17.4381 38.7414 18.0848 39.8801L16.1608 41.8041C15.7448 42.2201 15.7448 42.896 16.1608 43.312L20.6861 47.8374C21.1021 48.2534 21.7768 48.2547 22.1928 47.8387L22.1941 47.8374L24.1181 45.9147C25.2568 46.5627 26.4701 47.0667 27.7328 47.4147V50.1334C27.7328 50.7227 28.2101 51.2001 28.7994 51.2001H35.1994C35.7888 51.2001 36.2661 50.7227 36.2661 50.1334V47.416C37.5274 47.0667 38.7421 46.5614 39.8794 45.9147L41.8061 47.8387ZM34.9728 45.5387C34.4834 45.6467 34.1341 46.08 34.1341 46.5814V49.0667H29.8674V46.5814C29.8674 46.08 29.5181 45.6467 29.0288 45.5387C27.4301 45.1894 25.9074 44.5574 24.5314 43.6721C24.1101 43.4001 23.5554 43.4601 23.2008 43.816L21.4408 45.576L18.4234 42.5587L20.1834 40.7987C20.5381 40.444 20.5981 39.8907 20.3274 39.4681C19.4421 38.0921 18.8101 36.568 18.4608 34.9694C18.3528 34.48 17.9194 34.1321 17.4181 34.1321H14.9341V29.8654H17.4194C17.9208 29.8654 18.3541 29.516 18.4621 29.0267C18.8128 27.4294 19.4461 25.9067 20.3314 24.5321C20.6021 24.1094 20.5421 23.556 20.1874 23.2014L18.4248 21.4387L21.4421 18.4214L23.2034 20.1841C23.5581 20.5387 24.1114 20.5987 24.5341 20.3281C25.9088 19.4427 27.4314 18.8094 29.0301 18.4587C29.5194 18.352 29.8688 17.9174 29.8688 17.416V14.9334H34.1355V17.4187C34.1355 17.92 34.4848 18.3534 34.9741 18.4614C36.5714 18.8107 38.0848 19.4387 39.4714 20.3281C39.8941 20.5987 40.4475 20.5387 40.8021 20.1841L42.5621 18.424L45.5794 21.4414L43.8195 23.2014C43.4648 23.556 43.4048 24.1094 43.6754 24.5321C44.5608 25.9081 45.1928 27.432 45.5421 29.0307C45.6501 29.5201 46.0835 29.868 46.5848 29.868H49.0675V34.1347H46.5821C46.0808 34.1347 45.6474 34.484 45.5395 34.9734C45.1888 36.5707 44.5554 38.0934 43.6701 39.4681C43.3994 39.8907 43.4594 40.444 43.8141 40.7987L45.5768 42.5614L42.5595 45.5787L40.7981 43.816C40.4435 43.4614 39.8901 43.4014 39.4674 43.6721C38.0928 44.5561 36.5701 45.1881 34.9728 45.5387Z" fill="#6493AC"/>
<path d="M35.2008 12.8H28.8008C28.2114 12.8 27.7341 13.2774 27.7341 13.8667V16.584C26.4728 16.9334 25.2581 17.4387 24.1208 18.0854L22.1968 16.16C21.9888 15.9507 21.7154 15.8467 21.4421 15.8467C21.1714 15.8467 20.8994 15.9494 20.6928 16.156C20.6914 16.1574 20.6901 16.1587 20.6888 16.16L16.1634 20.6854C15.7474 21.1014 15.7474 21.7774 16.1634 22.1934L18.0901 24.1187C17.4421 25.256 16.9381 26.4694 16.5888 27.732H13.8674C13.2781 27.732 12.8008 28.2094 12.8008 28.7987V35.1987C12.8008 35.788 13.2781 36.2654 13.8674 36.2654H16.5848C16.9341 37.528 17.4381 38.7414 18.0848 39.8801L16.1608 41.8041C15.7448 42.2201 15.7448 42.896 16.1608 43.312L20.6861 47.8374C20.8941 48.0454 21.1674 48.1507 21.4408 48.1507C21.7128 48.1507 21.9861 48.0467 22.1941 47.8387L22.1954 47.8374L24.1194 45.9147C25.2581 46.5627 26.4714 47.0667 27.7341 47.4147V50.1334C27.7341 50.7227 28.2114 51.2001 28.8008 51.2001H35.2008C35.7901 51.2001 36.2674 50.7227 36.2674 50.1334V47.416C37.5288 47.0667 38.7435 46.5614 39.8808 45.9147L41.8061 47.84C42.0141 48.0494 42.2875 48.1534 42.5608 48.1534C42.8315 48.1534 43.1035 48.0507 43.3101 47.844C43.3115 47.8427 43.3128 47.8414 43.3141 47.84L47.8395 43.3147C48.2555 42.8987 48.2555 42.2227 47.8395 41.8067L45.9128 39.8814C46.5608 38.744 47.0648 37.5307 47.4141 36.2681H50.1341C50.7234 36.2681 51.2008 35.7907 51.2008 35.2014V28.8014C51.2008 28.212 50.7234 27.7347 50.1341 27.7347H47.4168C47.0674 26.472 46.5634 25.2587 45.9168 24.12L47.8408 22.196C48.2568 21.78 48.2568 21.104 47.8408 20.688L43.3154 16.1627C43.1074 15.9547 42.8341 15.8494 42.5608 15.8494C42.2888 15.8494 42.0154 15.9534 41.8074 16.1614L41.8061 16.1627L39.8821 18.0854C38.7434 17.4374 37.5301 16.9334 36.2674 16.5854V13.8667C36.2674 13.2774 35.7901 12.8 35.2008 12.8ZM23.9581 20.4987C24.1568 20.4987 24.3568 20.4427 24.5328 20.3294C25.9074 19.444 27.4301 18.8107 29.0288 18.46C29.5181 18.3534 29.8674 17.9187 29.8674 17.4174V14.9334H34.1341V17.4187C34.1341 17.92 34.4834 18.3534 34.9728 18.4614C36.5701 18.8107 38.0834 19.4387 39.4701 20.3281C39.6474 20.4414 39.8461 20.4974 40.0448 20.4974C40.3208 20.4974 40.5941 20.3907 40.7994 20.1841L42.5595 18.424L45.5768 21.4414L43.8168 23.2014C43.4621 23.556 43.4021 24.1094 43.6728 24.5321C44.5581 25.9081 45.1901 27.432 45.5395 29.0307C45.6474 29.5201 46.0808 29.868 46.5808 29.868H49.0675V34.1347H46.5821C46.0808 34.1347 45.6474 34.484 45.5395 34.9734C45.1888 36.5707 44.5554 38.0934 43.6701 39.4681C43.3994 39.8907 43.4594 40.444 43.8141 40.7987L45.5768 42.5614L42.5595 45.5787L40.7981 43.816C40.5928 43.6094 40.3195 43.5027 40.0434 43.5027C39.8448 43.5027 39.6448 43.5587 39.4688 43.6721C38.0928 44.5574 36.5715 45.1907 34.9728 45.5401C34.4834 45.648 34.1341 46.0814 34.1341 46.5827V49.0667H29.8674V46.5814C29.8674 46.08 29.5181 45.6467 29.0288 45.5387C27.4301 45.1894 25.9074 44.5574 24.5314 43.6721C24.3541 43.5587 24.1541 43.5027 23.9554 43.5027C23.6794 43.5027 23.4061 43.6094 23.2008 43.816L21.4408 45.576L18.4234 42.5587L20.1834 40.7987C20.5381 40.444 20.5981 39.8907 20.3274 39.4681C19.4421 38.0921 18.8101 36.568 18.4608 34.9694C18.3528 34.48 17.9194 34.1321 17.4194 34.1321H14.9341V29.8654H17.4194C17.9208 29.8654 18.3541 29.516 18.4621 29.0267C18.8128 27.4294 19.4461 25.9067 20.3314 24.5321C20.6021 24.1094 20.5421 23.556 20.1874 23.2014L18.4248 21.4387L21.4421 18.4214L23.2034 20.1841C23.4088 20.392 23.6821 20.4987 23.9581 20.4987Z" fill="#6493AC"/>
<path d="M18.5312 7.76931L19.2539 9.93731C19.4379 10.496 20.0392 10.7986 20.5979 10.6146C20.7579 10.5626 20.9019 10.4733 21.0205 10.3533L26.3539 5.01998C26.7699 4.60398 26.7712 3.92931 26.3552 3.51331C26.1912 3.34931 25.9792 3.24398 25.7499 3.21064L18.2832 2.14398C17.9165 2.09064 17.5499 2.23064 17.3139 2.51598C17.0765 2.79998 17.0032 3.18664 17.1205 3.53731L17.8472 5.71598C9.95253 9.98131 4.29386 17.6666 2.64453 26.4706L4.74053 26.8626C6.24986 18.812 11.3699 11.764 18.5312 7.76931ZM23.3365 5.02131L20.7325 7.62531L19.6899 4.49998L23.3365 5.02131Z" fill="#6493AC"/>
<path d="M18.1285 2.1333C17.8165 2.1333 17.5165 2.27197 17.3139 2.5173C17.0765 2.8013 17.0032 3.18797 17.1205 3.53863L17.8472 5.7173C9.95253 9.9813 4.29386 17.6666 2.64453 26.4706L4.74053 26.8626C6.24986 18.812 11.3699 11.764 18.5312 7.7693L19.2539 9.9373C19.4019 10.3853 19.8179 10.6693 20.2645 10.6693C20.3752 10.6693 20.4872 10.652 20.5979 10.616C20.7579 10.564 20.9019 10.4746 21.0205 10.3546L26.3539 5.0213C26.7699 4.6053 26.7712 3.93063 26.3552 3.51463C26.1912 3.35063 25.9792 3.2453 25.7499 3.21197L18.2832 2.1453C18.2312 2.1373 18.1792 2.1333 18.1285 2.1333ZM20.7325 7.6253L19.6899 4.49997L23.3365 5.01997L20.7325 7.6253Z" fill="#6493AC"/>
</g>
<defs>
<clipPath id="clip0_44829_1430">
<rect width="64" height="64" fill="white"/>
</clipPath>
</defs>
</svg>
