<svg width="64" height="64" viewBox="0 0 64 64" fill="none" xmlns="http://www.w3.org/2000/svg">
<g clip-path="url(#clip0_44829_1413)">
<path d="M29.5979 23.8541C30.1966 22.0115 32.8034 22.0115 33.4021 23.8541L34.3064 26.6373C34.5742 27.4613 35.3421 28.0193 36.2085 28.0193H39.135C41.0724 28.0193 41.878 30.4985 40.3105 31.6373L37.943 33.3574C37.242 33.8667 36.9487 34.7694 37.2165 35.5935L38.1208 38.3766C38.7195 40.2193 36.6105 41.7515 35.0431 40.6127L32.6756 38.8926C31.9746 38.3833 31.0254 38.3833 30.3244 38.8926L27.9569 40.6127C26.3895 41.7515 24.2805 40.2193 24.8792 38.3766L25.7835 35.5935C26.0513 34.7694 25.758 33.8667 25.057 33.3574L22.6895 31.6373C21.122 30.4985 21.9276 28.0193 23.865 28.0193H26.7915C27.6579 28.0193 28.4258 27.4613 28.6936 26.6373L29.5979 23.8541Z" fill="#E07700"/>
<path d="M62.0064 7.71293C61.9576 7.60957 61.8888 7.51689 61.804 7.44026C61.7192 7.36362 61.62 7.30454 61.5122 7.26643L41.0995 0.050304C40.671 -0.102321 40.1952 0.106554 40.0156 0.526054C38.4787 4.12955 35.407 6.3678 31.9996 6.3678C28.592 6.3678 25.5202 4.12968 23.9834 0.526054C23.804 0.106554 23.3289 -0.103446 22.8995 0.050304L2.48674 7.26643C2.37899 7.30456 2.27985 7.36365 2.19504 7.44028C2.11023 7.51691 2.04144 7.60958 1.99262 7.71293C1.94394 7.81638 1.91621 7.92845 1.91104 8.04267C1.90587 8.15689 1.92336 8.271 1.96249 8.37843L6.56212 20.9741C6.69562 21.3383 7.05424 21.5714 7.44187 21.5393L13.0449 21.1018C12.1397 28.9209 11.9257 44.1179 12.4419 51.0317C12.4579 51.2465 12.5534 51.4476 12.7098 51.5956C12.8662 51.7437 13.0723 51.8281 13.2876 51.8323C19.7036 51.9555 25.062 56.8553 25.7517 63.228C25.7747 63.4401 25.8751 63.6362 26.0338 63.7787C26.1925 63.9211 26.3982 64 26.6115 64.0001H37.3875C37.6008 64 37.8065 63.9212 37.9652 63.7787C38.1239 63.6362 38.2244 63.4401 38.2472 63.228C38.937 56.8554 44.2954 51.9557 50.7114 51.8323C50.9267 51.8281 51.1328 51.7437 51.2892 51.5956C51.4456 51.4476 51.5411 51.2465 51.5571 51.0317C52.0731 44.1179 51.8592 28.9211 50.9541 21.1018L56.5571 21.5393C56.9456 21.5719 57.3037 21.3383 57.4369 20.9741L62.0365 8.37843C62.0756 8.271 62.0931 8.15689 62.0879 8.04267C62.0828 7.92845 62.055 7.81638 62.0064 7.71293ZM56.0371 19.7641L50.031 19.2951C49.9022 19.2849 49.7728 19.3037 49.6523 19.3502C49.5318 19.3967 49.4233 19.4697 49.3347 19.5637C49.246 19.6576 49.1795 19.7703 49.1401 19.8934C49.1007 20.0164 49.0894 20.1468 49.107 20.2748C50.0582 27.2167 50.3364 42.7627 49.884 50.1399C43.2137 50.6332 37.7059 55.6737 36.6321 62.2704H27.3667C26.293 55.6737 20.7851 50.6332 14.1149 50.1399C13.6625 42.7628 13.9406 27.2168 14.8919 20.2748C14.9095 20.1468 14.8982 20.0165 14.8588 19.8935C14.8195 19.7704 14.753 19.6578 14.6644 19.5638C14.5757 19.4698 14.4672 19.3969 14.3466 19.3504C14.2261 19.3038 14.0967 19.285 13.9679 19.2951L7.96174 19.7641L3.88712 8.60593L22.734 1.9433C24.6436 5.75968 28.1309 8.09755 31.9996 8.09755C35.8681 8.09755 39.3554 5.7598 41.265 1.9433L60.1119 8.60593L56.0371 19.7641Z" fill="#6493AC"/>
</g>
<defs>
<clipPath id="clip0_44829_1413">
<rect width="64" height="64" fill="white"/>
</clipPath>
</defs>
</svg>
